<svg xmlns="http://www.w3.org/2000/svg" xmlns:xlink="http://www.w3.org/1999/xlink" width="929pt" height="260pt" viewBox="0 0 929 260"><g id="graph1" class="graph" transform="scale(1 1) rotate(0) translate(4 256)"><title>g</title><polygon fill="#fff" stroke="#fff" points="-4 5 -4 -256 926 -256 926 5 -4 5"/><g id="node1" class="node"><title>rsc1_monitor_0 pcmk-2</title><ellipse cx="405" cy="-234" fill="none" stroke="green" stroke-width="2" rx="96.146" ry="18"/><text x="405" y="-228.4" font-family="Times,serif" font-size="14" text-anchor="middle">rsc1_monitor_0 pcmk-2</text></g><g id="node3" class="node"><title>probe_complete pcmk-2</title><ellipse cx="615" cy="-162" fill="none" stroke="green" stroke-width="2" rx="98.041" ry="18"/><text x="615" y="-156.4" font-family="Times,serif" font-size="14" text-anchor="middle">probe_complete pcmk-2</text></g><g id="edge2" class="edge"><title>rsc1_monitor_0 pcmk-2-&gt;probe_complete pcmk-2</title><path fill="none" stroke="#000" stroke-width="2" d="M451.085,-218.199C482.843,-207.311 525.232,-192.777 558.948,-181.218"/><polygon fill="#000" stroke="#000" points="560.335 -184.442 568.66 -177.888 558.065 -177.821 560.335 -184.442"/></g><g id="node9" class="node"><title>probe_complete</title><ellipse cx="615" cy="-90" fill="none" stroke="green" stroke-width="2" rx="68.853" ry="18"/><text x="615" y="-84.4" fill="orange" font-family="Times,serif" font-size="14" text-anchor="middle">probe_complete</text></g><g id="edge24" class="edge"><title>probe_complete pcmk-2-&gt;probe_complete</title><path fill="none" stroke="#000" stroke-width="2" d="M615,-143.831C615,-136.131 615,-126.974 615,-118.417"/><polygon fill="#000" stroke="#000" points="618.5 -118.413 615 -108.413 611.5 -118.413 618.5 -118.413"/></g><g id="node4" class="node"><title>rsc1_stop_0 pcmk-1</title><ellipse cx="264" cy="-90" fill="none" stroke="red" stroke-dasharray="5 2" rx="82.248" ry="18"/><text x="264" y="-84.4" font-family="Times,serif" font-size="14" text-anchor="middle">rsc1_stop_0 pcmk-1</text></g><g id="node5" class="node"><title>rsc1_start_0 pcmk-2</title><ellipse cx="340" cy="-18" fill="none" stroke="red" stroke-dasharray="5 2" rx="82.248" ry="18"/><text x="340" y="-12.4" font-family="Times,serif" font-size="14" text-anchor="middle">rsc1_start_0 pcmk-2</text></g><g id="edge4" class="edge"><title>rsc1_stop_0 pcmk-1-&gt;rsc1_start_0 pcmk-2</title><path fill="none" stroke="#000" stroke-dasharray="5 2" d="M282.787,-72.2022C292.174,-63.3088 303.684,-52.4042 313.913,-42.7135"/><polygon fill="#000" stroke="#000" points="316.577 -45.011 321.43 -35.593 311.763 -39.93 316.577 -45.011"/></g><g id="node8" class="node"><title>all_stopped</title><ellipse cx="188" cy="-18" fill="none" stroke="red" stroke-dasharray="5 2" rx="51.797" ry="18"/><text x="188" y="-12.4" fill="orange" font-family="Times,serif" font-size="14" text-anchor="middle">all_stopped</text></g><g id="edge6" class="edge"><title>rsc1_stop_0 pcmk-1-&gt;all_stopped</title><path fill="none" stroke="#000" stroke-dasharray="5 2" d="M245.213,-72.2022C235.592,-63.0876 223.742,-51.8605 213.326,-41.9926"/><polygon fill="#000" stroke="#000" points="215.714 -39.434 206.047 -35.097 210.9 -44.516 215.714 -39.434"/></g><g id="edge8" class="edge"><title>probe_complete-&gt;rsc1_start_0 pcmk-2</title><path fill="none" stroke="#000" stroke-dasharray="5 2" d="M566.152,-77.2108C520.668,-65.3021 452.621,-47.4861 403.053,-34.5083"/><polygon fill="#000" stroke="#000" points="403.645 -31.046 393.084 -31.898 401.872 -37.817 403.645 -31.046"/></g><g id="node14" class="node"><title>rsc2_start_0 pcmk-2</title><ellipse cx="522" cy="-18" fill="none" stroke="red" stroke-dasharray="5 2" rx="82.248" ry="18"/><text x="522" y="-12.4" font-family="Times,serif" font-size="14" text-anchor="middle">rsc2_start_0 pcmk-2</text></g><g id="edge16" class="edge"><title>probe_complete-&gt;rsc2_start_0 pcmk-2</title><path fill="none" stroke="#000" stroke-dasharray="5 2" d="M592.96,-72.937C580.861,-63.57 565.674,-51.8119 552.457,-41.5796"/><polygon fill="#000" stroke="#000" points="554.577 -38.795 544.528 -35.441 550.292 -44.33 554.577 -38.795"/></g><g id="node21" class="node"><title>rsc3_start_0 pcmk-2</title><ellipse cx="704" cy="-18" fill="none" stroke="#00f" stroke-dasharray="5 2" rx="82.248" ry="18"/><text x="704" y="-12.4" font-family="Times,serif" font-size="14" text-anchor="middle">rsc3_start_0 pcmk-2</text></g><g id="edge22" class="edge"><title>probe_complete-&gt;rsc3_start_0 pcmk-2</title><path fill="none" stroke="#000" stroke-dasharray="5 2" d="M636.544,-72.5708C647.939,-63.353 662.098,-51.8983 674.498,-41.8669"/><polygon fill="#000" stroke="#000" points="676.772 -44.529 682.346 -35.518 672.37 -39.087 676.772 -44.529"/></g><g id="node11" class="node"><title>rsc2_monitor_0 pcmk-2</title><ellipse cx="615" cy="-234" fill="none" stroke="green" stroke-width="2" rx="96.146" ry="18"/><text x="615" y="-228.4" font-family="Times,serif" font-size="14" text-anchor="middle">rsc2_monitor_0 pcmk-2</text></g><g id="edge10" class="edge"><title>rsc2_monitor_0 pcmk-2-&gt;probe_complete pcmk-2</title><path fill="none" stroke="#000" stroke-width="2" d="M615,-215.831C615,-208.131 615,-198.974 615,-190.417"/><polygon fill="#000" stroke="#000" points="618.5 -190.413 615 -180.413 611.5 -190.413 618.5 -190.413"/></g><g id="node13" class="node"><title>rsc2_stop_0 pcmk-1</title><ellipse cx="446" cy="-90" fill="none" stroke="red" stroke-dasharray="5 2" rx="82.248" ry="18"/><text x="446" y="-84.4" font-family="Times,serif" font-size="14" text-anchor="middle">rsc2_stop_0 pcmk-1</text></g><g id="edge14" class="edge"><title>rsc2_stop_0 pcmk-1-&gt;all_stopped</title><path fill="none" stroke="#000" stroke-dasharray="5 2" d="M394.076,-76.062C354.309,-65.3159 298.117,-49.977 249,-36 245.225,-34.9257 241.322,-33.8027 237.4,-32.6653"/><polygon fill="#000" stroke="#000" points="238.251 -29.268 227.671 -29.828 236.291 -35.988 238.251 -29.268"/></g><g id="edge12" class="edge"><title>rsc2_stop_0 pcmk-1-&gt;rsc2_start_0 pcmk-2</title><path fill="none" stroke="#000" stroke-dasharray="5 2" d="M464.787,-72.2022C474.174,-63.3088 485.684,-52.4042 495.913,-42.7135"/><polygon fill="#000" stroke="#000" points="498.577 -45.011 503.43 -35.593 493.763 -39.93 498.577 -45.011"/></g><g id="node18" class="node"><title>rsc3_monitor_0 pcmk-2</title><ellipse cx="825" cy="-234" fill="none" stroke="green" stroke-width="2" rx="96.146" ry="18"/><text x="825" y="-228.4" font-family="Times,serif" font-size="14" text-anchor="middle">rsc3_monitor_0 pcmk-2</text></g><g id="edge18" class="edge"><title>rsc3_monitor_0 pcmk-2-&gt;probe_complete pcmk-2</title><path fill="none" stroke="#000" stroke-width="2" d="M778.915,-218.199C747.157,-207.311 704.768,-192.777 671.052,-181.218"/><polygon fill="#000" stroke="#000" points="671.935 -177.821 661.34 -177.888 669.665 -184.442 671.935 -177.821"/></g><g id="node20" class="node"><title>rsc3_stop_0 pcmk-1</title><ellipse cx="82" cy="-90" fill="none" stroke="#00f" stroke-dasharray="5 2" rx="82.248" ry="18"/><text x="82" y="-84.4" fill="orange" font-family="Times,serif" font-size="14" text-anchor="middle">rsc3_stop_0 pcmk-1</text></g><g id="edge20" class="edge"><title>rsc3_stop_0 pcmk-1-&gt;all_stopped</title><path fill="none" stroke="#000" stroke-dasharray="5 2" d="M107.39,-72.7542C121.963,-62.8554 140.4,-50.3319 155.963,-39.761"/><polygon fill="#000" stroke="#000" points="157.965 -42.632 164.27 -34.118 154.032 -36.842 157.965 -42.632"/></g></g></svg>