<svg xmlns="http://www.w3.org/2000/svg" xmlns:xlink="http://www.w3.org/1999/xlink" width="1552" height="1556pt" viewBox="0 0 1164 1556"><g id="graph1" class="graph" transform="scale(1 1) rotate(0) translate(4 1552)"><title>g</title><polygon fill="#fff" stroke="#fff" points="-4 5 -4 -1552 1161 -1552 1161 5 -4 5"/><g id="node1" class="node"><title>Cancel drbd0:0_monitor_10000 frigg</title><ellipse cx="403" cy="-1314" fill="none" stroke="green" stroke-width="2" rx="147.181" ry="18"/><text x="403" y="-1308.4" font-family="Times,serif" font-size="14" text-anchor="middle">Cancel drbd0:0_monitor_10000 frigg</text></g><g id="node3" class="node"><title>drbd0:0_demote_0 frigg</title><ellipse cx="462" cy="-1242" fill="none" stroke="green" stroke-width="2" rx="99.173" ry="18"/><text x="462" y="-1236.4" font-family="Times,serif" font-size="14" text-anchor="middle">drbd0:0_demote_0 frigg</text></g><g id="edge2" class="edge"><title>Cancel drbd0:0_monitor_10000 frigg-&gt;drbd0:0_demote_0 frigg</title><path fill="none" stroke="#000" stroke-width="2" d="M417.888,-1295.83C424.859,-1287.33 433.285,-1277.04 440.898,-1267.75"/><polygon fill="#000" stroke="#000" points="443.69 -1269.87 447.321 -1259.91 438.276 -1265.43 443.69 -1269.87"/></g><g id="node16" class="node"><title>drbd0:0_monitor_12000 frigg</title><ellipse cx="305" cy="-234" fill="none" stroke="green" stroke-width="2" rx="118.755" ry="18"/><text x="305" y="-228.4" font-family="Times,serif" font-size="14" text-anchor="middle">drbd0:0_monitor_12000 frigg</text></g><g id="edge14" class="edge"><title>drbd0:0_demote_0 frigg-&gt;drbd0:0_monitor_12000 frigg</title><path fill="none" stroke="#000" stroke-width="2" d="M406.642,-1227.02C348.992,-1207.67 267,-1167.86 267,-1098 267,-1098 267,-1098 267,-378 267,-336.368 282.033,-290.14 293.188,-261.567"/><polygon fill="#000" stroke="#000" points="296.458 -262.817 296.941 -252.233 289.963 -260.206 296.458 -262.817"/></g><g id="node18" class="node"><title>ms_drbd_demoted_0</title><ellipse cx="649" cy="-1170" fill="none" stroke="green" stroke-width="2" rx="87.171" ry="18"/><text x="649" y="-1164.4" fill="orange" font-family="Times,serif" font-size="14" text-anchor="middle">ms_drbd_demoted_0</text></g><g id="edge16" class="edge"><title>drbd0:0_demote_0 frigg-&gt;ms_drbd_demoted_0</title><path fill="none" stroke="#000" stroke-width="2" d="M504.433,-1225.66C532.219,-1214.96 568.685,-1200.92 598.04,-1189.62"/><polygon fill="#000" stroke="#000" points="599.625 -1192.76 607.7 -1185.9 597.11 -1186.23 599.625 -1192.76"/></g><g id="node4" class="node"><title>Cancel drbd0:1_monitor_12000 odin</title><ellipse cx="905" cy="-666" fill="none" stroke="green" stroke-width="2" rx="144.153" ry="18"/><text x="905" y="-660.4" font-family="Times,serif" font-size="14" text-anchor="middle">Cancel drbd0:1_monitor_12000 odin</text></g><g id="node6" class="node"><title>drbd0:1_promote_0 odin</title><ellipse cx="905" cy="-594" fill="none" stroke="green" stroke-width="2" rx="99.937" ry="18"/><text x="905" y="-588.4" font-family="Times,serif" font-size="14" text-anchor="middle">drbd0:1_promote_0 odin</text></g><g id="edge4" class="edge"><title>Cancel drbd0:1_monitor_12000 odin-&gt;drbd0:1_promote_0 odin</title><path fill="none" stroke="#000" stroke-width="2" d="M905,-647.831C905,-640.131 905,-630.974 905,-622.417"/><polygon fill="#000" stroke="#000" points="908.5 -622.413 905 -612.413 901.5 -622.413 908.5 -622.413"/></g><g id="node31" class="node"><title>drbd0:1_monitor_10000 odin</title><ellipse cx="1039" cy="-234" fill="none" stroke="green" stroke-width="2" rx="116.992" ry="18"/><text x="1039" y="-228.4" font-family="Times,serif" font-size="14" text-anchor="middle">drbd0:1_monitor_10000 odin</text></g><g id="edge34" class="edge"><title>drbd0:1_promote_0 odin-&gt;drbd0:1_monitor_10000 odin</title><path fill="none" stroke="#000" stroke-width="2" d="M948.966,-577.672C967.665,-568.896 988.462,-556.447 1003,-540 1031.53,-507.72 1039,-493.081 1039,-450 1039,-450 1039,-450 1039,-378 1039,-337.876 1039,-291.463 1039,-262.418"/><polygon fill="#000" stroke="#000" points="1042.5 -262.185 1039 -252.185 1035.5 -262.185 1042.5 -262.185"/></g><g id="node42" class="node"><title>ms_drbd_promoted_0</title><ellipse cx="905" cy="-522" fill="none" stroke="green" stroke-width="2" rx="89.197" ry="18"/><text x="905" y="-516.4" fill="orange" font-family="Times,serif" font-size="14" text-anchor="middle">ms_drbd_promoted_0</text></g><g id="edge36" class="edge"><title>drbd0:1_promote_0 odin-&gt;ms_drbd_promoted_0</title><path fill="none" stroke="#000" stroke-width="2" d="M905,-575.831C905,-568.131 905,-558.974 905,-550.417"/><polygon fill="#000" stroke="#000" points="908.5 -550.413 905 -540.413 901.5 -550.413 908.5 -550.413"/></g><g id="node7" class="node"><title>IPaddr0_monitor_5000 odin</title><ellipse cx="785" cy="-90" fill="none" stroke="green" stroke-width="2" rx="113.834" ry="18"/><text x="785" y="-84.4" font-family="Times,serif" font-size="14" text-anchor="middle">IPaddr0_monitor_5000 odin</text></g><g id="node8" class="node"><title>IPaddr0_start_0 odin</title><ellipse cx="785" cy="-162" fill="none" stroke="green" stroke-width="2" rx="85.908" ry="18"/><text x="785" y="-156.4" font-family="Times,serif" font-size="14" text-anchor="middle">IPaddr0_start_0 odin</text></g><g id="edge6" class="edge"><title>IPaddr0_start_0 odin-&gt;IPaddr0_monitor_5000 odin</title><path fill="none" stroke="#000" stroke-width="2" d="M785,-143.831C785,-136.131 785,-126.974 785,-118.417"/><polygon fill="#000" stroke="#000" points="788.5 -118.413 785 -108.413 781.5 -118.413 788.5 -118.413"/></g><g id="node11" class="node"><title>MailTo_start_0 odin</title><ellipse cx="568" cy="-90" fill="none" stroke="green" stroke-width="2" rx="84.778" ry="18"/><text x="568" y="-84.4" font-family="Times,serif" font-size="14" text-anchor="middle">MailTo_start_0 odin</text></g><g id="edge8" class="edge"><title>IPaddr0_start_0 odin-&gt;MailTo_start_0 odin</title><path fill="none" stroke="#000" stroke-width="2" d="M738.98,-146.731C705.319,-135.562 659.487,-120.355 623.748,-108.497"/><polygon fill="#000" stroke="#000" points="624.547 -105.075 613.954 -105.247 622.343 -111.718 624.547 -105.075"/></g><g id="node13" class="node"><title>group_running_0</title><ellipse cx="927" cy="-18" fill="none" stroke="green" stroke-width="2" rx="72.011" ry="18"/><text x="927" y="-12.4" fill="orange" font-family="Times,serif" font-size="14" text-anchor="middle">group_running_0</text></g><g id="edge10" class="edge"><title>IPaddr0_start_0 odin-&gt;group_running_0</title><path fill="none" stroke="#000" stroke-width="2" d="M843.597,-148.766C866.832,-140.675 891.818,-127.906 908,-108 922.024,-90.7488 926.414,-65.6439 927.501,-46.3293"/><polygon fill="#000" stroke="#000" points="931.001 -46.383 927.805 -36.281 924.004 -46.171 931.001 -46.383"/></g><g id="edge12" class="edge"><title>MailTo_start_0 odin-&gt;group_running_0</title><path fill="none" stroke="#000" stroke-width="2" d="M630.123,-77.5408C694.547,-64.6201 794.893,-44.4951 860.788,-31.2792"/><polygon fill="#000" stroke="#000" points="861.538 -34.699 870.655 -29.3 860.161 -27.835 861.538 -34.699"/></g><g id="node57" class="node"><title>ms_drbd_post_notify_demoted_0</title><ellipse cx="648" cy="-1098" fill="none" stroke="green" stroke-width="2" rx="132.02" ry="18"/><text x="648" y="-1092.4" fill="orange" font-family="Times,serif" font-size="14" text-anchor="middle">ms_drbd_post_notify_demoted_0</text></g><g id="edge68" class="edge"><title>ms_drbd_demoted_0-&gt;ms_drbd_post_notify_demoted_0</title><path fill="none" stroke="#000" stroke-width="2" d="M648.748,-1151.83C648.641,-1144.13 648.514,-1134.97 648.395,-1126.42"/><polygon fill="#000" stroke="#000" points="651.894 -1126.36 648.256 -1116.41 644.895 -1126.46 651.894 -1126.36"/></g><g id="node61" class="node"><title>ms_drbd_promote_0</title><ellipse cx="658" cy="-666" fill="none" stroke="green" stroke-width="2" rx="84.778" ry="18"/><text x="658" y="-660.4" fill="orange" font-family="Times,serif" font-size="14" text-anchor="middle">ms_drbd_promote_0</text></g><g id="edge70" class="edge"><title>ms_drbd_demoted_0-&gt;ms_drbd_promote_0</title><path fill="none" stroke="#000" stroke-width="2" d="M727.261,-1162.11C859.993,-1146.53 1115,-1106.18 1115,-1026 1115,-1026 1115,-1026 1115,-810 1115,-770.01 857.154,-708.849 728.82,-680.885"/><polygon fill="#000" stroke="#000" points="729.201 -677.387 718.686 -678.688 727.717 -684.228 729.201 -677.387"/></g><g id="node19" class="node"><title>drbd0:0_post_notify_demote_0 frigg</title><ellipse cx="820" cy="-1026" fill="none" stroke="green" stroke-width="2" rx="144.022" ry="18"/><text x="820" y="-1020.4" font-family="Times,serif" font-size="14" text-anchor="middle">drbd0:0_post_notify_demote_0 frigg</text></g><g id="node21" class="node"><title>ms_drbd_confirmed-post_notify_demoted_0</title><ellipse cx="648" cy="-954" fill="none" stroke="green" stroke-width="2" rx="173.079" ry="18"/><text x="648" y="-948.4" fill="orange" font-family="Times,serif" font-size="14" text-anchor="middle">ms_drbd_confirmed-post_notify_demoted_0</text></g><g id="edge18" class="edge"><title>drbd0:0_post_notify_demote_0 frigg-&gt;ms_drbd_confirmed-post_notify_demoted_0</title><path fill="none" stroke="#000" stroke-width="2" d="M778.364,-1008.57C754.561,-998.607 724.514,-986.029 699.267,-975.461"/><polygon fill="#000" stroke="#000" points="700.425 -972.151 689.849 -971.518 697.722 -978.608 700.425 -972.151"/></g><g id="edge44" class="edge"><title>ms_drbd_confirmed-post_notify_demoted_0-&gt;drbd0:0_monitor_12000 frigg</title><path fill="none" stroke="#000" stroke-width="2" d="M571.024,-937.852C469.896,-914.38 305,-867.318 305,-810 305,-810 305,-810 305,-378 305,-337.876 305,-291.463 305,-262.418"/><polygon fill="#000" stroke="#000" points="308.5 -262.185 305 -252.185 301.5 -262.185 308.5 -262.185"/></g><g id="edge46" class="edge"><title>ms_drbd_confirmed-post_notify_demoted_0-&gt;drbd0:1_monitor_10000 odin</title><path fill="none" stroke="#000" stroke-width="2" d="M754.32,-939.792C881.367,-919.767 1077,-877.908 1077,-810 1077,-810 1077,-810 1077,-378 1077,-336.368 1061.97,-290.14 1050.81,-261.567"/><polygon fill="#000" stroke="#000" points="1054.04 -260.206 1047.06 -252.233 1047.54 -262.817 1054.04 -260.206"/></g><g id="node50" class="node"><title>ms_drbd_pre_notify_promote_0</title><ellipse cx="648" cy="-882" fill="none" stroke="green" stroke-width="2" rx="126.967" ry="18"/><text x="648" y="-876.4" fill="orange" font-family="Times,serif" font-size="14" text-anchor="middle">ms_drbd_pre_notify_promote_0</text></g><g id="edge48" class="edge"><title>ms_drbd_confirmed-post_notify_demoted_0-&gt;ms_drbd_pre_notify_promote_0</title><path fill="none" stroke="#000" stroke-width="2" d="M648,-935.831C648,-928.131 648,-918.974 648,-910.417"/><polygon fill="#000" stroke="#000" points="651.5 -910.413 648 -900.413 644.5 -910.413 651.5 -910.413"/></g><g id="node22" class="node"><title>drbd0:0_post_notify_promote_0 frigg</title><ellipse cx="826" cy="-378" fill="none" stroke="green" stroke-width="2" rx="147.181" ry="18"/><text x="826" y="-372.4" font-family="Times,serif" font-size="14" text-anchor="middle">drbd0:0_post_notify_promote_0 frigg</text></g><g id="node24" class="node"><title>ms_drbd_confirmed-post_notify_promoted_0</title><ellipse cx="724" cy="-306" fill="none" stroke="green" stroke-width="2" rx="176.238" ry="18"/><text x="724" y="-300.4" fill="orange" font-family="Times,serif" font-size="14" text-anchor="middle">ms_drbd_confirmed-post_notify_promoted_0</text></g><g id="edge20" class="edge"><title>drbd0:0_post_notify_promote_0 frigg-&gt;ms_drbd_confirmed-post_notify_promoted_0</title><path fill="none" stroke="#000" stroke-width="2" d="M800.787,-360.202C787.791,-351.029 771.764,-339.716 757.72,-329.803"/><polygon fill="#000" stroke="#000" points="759.465 -326.75 749.277 -323.843 755.428 -332.469 759.465 -326.75"/></g><g id="edge50" class="edge"><title>ms_drbd_confirmed-post_notify_promoted_0-&gt;drbd0:0_monitor_12000 frigg</title><path fill="none" stroke="#000" stroke-width="2" d="M633.857,-290.51C562.906,-278.318 464.546,-261.416 393.914,-249.279"/><polygon fill="#000" stroke="#000" points="394.149 -245.768 383.701 -247.524 392.964 -252.667 394.149 -245.768"/></g><g id="edge52" class="edge"><title>ms_drbd_confirmed-post_notify_promoted_0-&gt;drbd0:1_monitor_10000 odin</title><path fill="none" stroke="#000" stroke-width="2" d="M796.267,-289.482C846.331,-278.039 912.837,-262.837 963.574,-251.24"/><polygon fill="#000" stroke="#000" points="964.533 -254.611 973.502 -248.971 962.973 -247.787 964.533 -254.611"/></g><g id="node43" class="node"><title>group_start_0</title><ellipse cx="785" cy="-234" fill="none" stroke="green" stroke-width="2" rx="58.244" ry="18"/><text x="785" y="-228.4" fill="orange" font-family="Times,serif" font-size="14" text-anchor="middle">group_start_0</text></g><g id="edge54" class="edge"><title>ms_drbd_confirmed-post_notify_promoted_0-&gt;group_start_0</title><path fill="none" stroke="#000" stroke-width="2" d="M739.393,-287.831C746.709,-279.196 755.576,-268.73 763.54,-259.33"/><polygon fill="#000" stroke="#000" points="766.45 -261.31 770.243 -251.418 761.109 -256.785 766.45 -261.31"/></g><g id="node25" class="node"><title>drbd0:0_pre_notify_demote_0 frigg</title><ellipse cx="141" cy="-1458" fill="none" stroke="green" stroke-width="2" rx="140.864" ry="18"/><text x="141" y="-1452.4" font-family="Times,serif" font-size="14" text-anchor="middle">drbd0:0_pre_notify_demote_0 frigg</text></g><g id="node27" class="node"><title>ms_drbd_confirmed-pre_notify_demote_0</title><ellipse cx="439" cy="-1386" fill="none" stroke="green" stroke-width="2" rx="164.867" ry="18"/><text x="439" y="-1380.4" fill="orange" font-family="Times,serif" font-size="14" text-anchor="middle">ms_drbd_confirmed-pre_notify_demote_0</text></g><g id="edge22" class="edge"><title>drbd0:0_pre_notify_demote_0 frigg-&gt;ms_drbd_confirmed-pre_notify_demote_0</title><path fill="none" stroke="#000" stroke-width="2" d="M207.136,-1442.02C252.6,-1431.04 313.156,-1416.41 360.981,-1404.85"/><polygon fill="#000" stroke="#000" points="362.085 -1408.18 370.983 -1402.43 360.441 -1401.38 362.085 -1408.18"/></g><g id="node55" class="node"><title>ms_drbd_demote_0</title><ellipse cx="650" cy="-1314" fill="none" stroke="green" stroke-width="2" rx="82.118" ry="18"/><text x="650" y="-1308.4" fill="orange" font-family="Times,serif" font-size="14" text-anchor="middle">ms_drbd_demote_0</text></g><g id="edge56" class="edge"><title>ms_drbd_confirmed-pre_notify_demote_0-&gt;ms_drbd_demote_0</title><path fill="none" stroke="#000" stroke-width="2" d="M489.272,-1368.85C521.307,-1357.91 562.803,-1343.75 595.608,-1332.56"/><polygon fill="#000" stroke="#000" points="597.155 -1335.73 605.489 -1329.19 594.895 -1329.11 597.155 -1335.73"/></g><g id="edge58" class="edge"><title>ms_drbd_confirmed-pre_notify_demote_0-&gt;ms_drbd_post_notify_demoted_0</title><path fill="none" stroke="#000" stroke-width="2" d="M328.275,-1372.62C273.989,-1360.62 224.595,-1338.08 247,-1296 306.089,-1185.02 450.881,-1135.21 549.305,-1113.6"/><polygon fill="#000" stroke="#000" points="550.228 -1116.98 559.277 -1111.47 548.766 -1110.14 550.228 -1116.98"/></g><g id="node28" class="node"><title>drbd0:0_pre_notify_promote_0 frigg</title><ellipse cx="820" cy="-810" fill="none" stroke="green" stroke-width="2" rx="144.022" ry="18"/><text x="820" y="-804.4" font-family="Times,serif" font-size="14" text-anchor="middle">drbd0:0_pre_notify_promote_0 frigg</text></g><g id="node30" class="node"><title>ms_drbd_confirmed-pre_notify_promote_0</title><ellipse cx="648" cy="-738" fill="none" stroke="green" stroke-width="2" rx="168.026" ry="18"/><text x="648" y="-732.4" fill="orange" font-family="Times,serif" font-size="14" text-anchor="middle">ms_drbd_confirmed-pre_notify_promote_0</text></g><g id="edge24" class="edge"><title>drbd0:0_pre_notify_promote_0 frigg-&gt;ms_drbd_confirmed-pre_notify_promote_0</title><path fill="none" stroke="#000" stroke-width="2" d="M778.364,-792.571C754.561,-782.607 724.514,-770.029 699.267,-759.461"/><polygon fill="#000" stroke="#000" points="700.425 -756.151 689.849 -755.518 697.722 -762.608 700.425 -756.151"/></g><g id="node59" class="node"><title>ms_drbd_post_notify_promoted_0</title><ellipse cx="651" cy="-450" fill="none" stroke="green" stroke-width="2" rx="134.047" ry="18"/><text x="651" y="-444.4" fill="orange" font-family="Times,serif" font-size="14" text-anchor="middle">ms_drbd_post_notify_promoted_0</text></g><g id="edge60" class="edge"><title>ms_drbd_confirmed-pre_notify_promote_0-&gt;ms_drbd_post_notify_promoted_0</title><path fill="none" stroke="#000" stroke-width="2" d="M603.906,-720.477C588.422,-711.933 572.723,-699.978 564,-684 556.333,-669.957 560.712,-663.658 564,-648 577.623,-583.13 613.831,-513.569 634.995,-476.637"/><polygon fill="#000" stroke="#000" points="638.031 -478.378 640.029 -467.973 631.979 -474.861 638.031 -478.378"/></g><g id="edge62" class="edge"><title>ms_drbd_confirmed-pre_notify_promote_0-&gt;ms_drbd_promote_0</title><path fill="none" stroke="#000" stroke-width="2" d="M650.523,-719.831C651.593,-712.131 652.865,-702.974 654.053,-694.417"/><polygon fill="#000" stroke="#000" points="657.534 -694.8 655.443 -684.413 650.6 -693.837 657.534 -694.8"/></g><g id="node32" class="node"><title>drbd0:1_post_notify_demote_0 odin</title><ellipse cx="478" cy="-1026" fill="none" stroke="green" stroke-width="2" rx="142.127" ry="18"/><text x="478" y="-1020.4" font-family="Times,serif" font-size="14" text-anchor="middle">drbd0:1_post_notify_demote_0 odin</text></g><g id="edge26" class="edge"><title>drbd0:1_post_notify_demote_0 odin-&gt;ms_drbd_confirmed-post_notify_demoted_0</title><path fill="none" stroke="#000" stroke-width="2" d="M518.719,-1008.75C542.237,-998.794 572.028,-986.176 597.084,-975.564"/><polygon fill="#000" stroke="#000" points="598.589 -978.728 606.432 -971.605 595.859 -972.282 598.589 -978.728"/></g><g id="node34" class="node"><title>drbd0:1_post_notify_promote_0 odin</title><ellipse cx="478" cy="-378" fill="none" stroke="green" stroke-width="2" rx="144.786" ry="18"/><text x="478" y="-372.4" font-family="Times,serif" font-size="14" text-anchor="middle">drbd0:1_post_notify_promote_0 odin</text></g><g id="edge28" class="edge"><title>drbd0:1_post_notify_promote_0 odin-&gt;ms_drbd_confirmed-post_notify_promoted_0</title><path fill="none" stroke="#000" stroke-width="2" d="M534.746,-361.391C570.827,-350.831 617.748,-337.098 655.844,-325.948"/><polygon fill="#000" stroke="#000" points="657.217 -329.193 665.831 -323.025 655.251 -322.475 657.217 -329.193"/></g><g id="node36" class="node"><title>drbd0:1_pre_notify_demote_0 odin</title><ellipse cx="439" cy="-1458" fill="none" stroke="green" stroke-width="2" rx="138.969" ry="18"/><text x="439" y="-1452.4" font-family="Times,serif" font-size="14" text-anchor="middle">drbd0:1_pre_notify_demote_0 odin</text></g><g id="edge30" class="edge"><title>drbd0:1_pre_notify_demote_0 odin-&gt;ms_drbd_confirmed-pre_notify_demote_0</title><path fill="none" stroke="#000" stroke-width="2" d="M439,-1439.83C439,-1432.13 439,-1422.97 439,-1414.42"/><polygon fill="#000" stroke="#000" points="442.5 -1414.41 439 -1404.41 435.5 -1414.41 442.5 -1414.41"/></g><g id="node38" class="node"><title>drbd0:1_pre_notify_promote_0 odin</title><ellipse cx="478" cy="-810" fill="none" stroke="green" stroke-width="2" rx="142.127" ry="18"/><text x="478" y="-804.4" font-family="Times,serif" font-size="14" text-anchor="middle">drbd0:1_pre_notify_promote_0 odin</text></g><g id="edge32" class="edge"><title>drbd0:1_pre_notify_promote_0 odin-&gt;ms_drbd_confirmed-pre_notify_promote_0</title><path fill="none" stroke="#000" stroke-width="2" d="M518.719,-792.754C542.324,-782.757 572.249,-770.083 597.362,-759.447"/><polygon fill="#000" stroke="#000" points="598.885 -762.603 606.728 -755.48 596.155 -756.157 598.885 -762.603"/></g><g id="edge98" class="edge"><title>ms_drbd_promoted_0-&gt;group_start_0</title><path fill="none" stroke="#000" stroke-width="2" d="M924.136,-504.272C953.575,-474.741 1004.35,-413.435 982,-360 957.253,-300.834 888.035,-266.709 838.653,-249.251"/><polygon fill="#000" stroke="#000" points="839.654 -245.894 829.06 -245.979 837.394 -252.52 839.654 -245.894"/></g><g id="edge100" class="edge"><title>ms_drbd_promoted_0-&gt;ms_drbd_post_notify_promoted_0</title><path fill="none" stroke="#000" stroke-width="2" d="M853.293,-507.343C814.268,-496.281 760.399,-481.011 718.061,-469.009"/><polygon fill="#000" stroke="#000" points="718.965 -465.628 708.39 -466.268 717.056 -472.363 718.965 -465.628"/></g><g id="edge38" class="edge"><title>group_start_0-&gt;IPaddr0_start_0 odin</title><path fill="none" stroke="#000" stroke-width="2" d="M785,-215.831C785,-208.131 785,-198.974 785,-190.417"/><polygon fill="#000" stroke="#000" points="788.5 -190.413 785 -180.413 781.5 -190.413 788.5 -190.413"/></g><g id="edge40" class="edge"><title>group_start_0-&gt;MailTo_start_0 odin</title><path fill="none" stroke="#000" stroke-width="2" d="M755.361,-218.334C736.346,-207.997 711.317,-193.851 690,-180 657.622,-158.961 622.289,-132.48 598.02,-113.702"/><polygon fill="#000" stroke="#000" points="599.963 -110.78 589.92 -107.404 595.666 -116.305 599.963 -110.78"/></g><g id="edge42" class="edge"><title>group_start_0-&gt;group_running_0</title><path fill="none" stroke="#000" stroke-width="2" d="M819.055,-219.285C838.323,-209.88 862.073,-196.38 880,-180 908.761,-153.72 918.357,-145.179 930,-108 936.288,-87.9209 935.135,-64.0791 932.628,-45.9805"/><polygon fill="#000" stroke="#000" points="936.076 -45.381 931.04 -36.06 929.164 -46.487 936.076 -45.381"/></g><g id="edge90" class="edge"><title>ms_drbd_pre_notify_promote_0-&gt;drbd0:0_pre_notify_promote_0 frigg</title><path fill="none" stroke="#000" stroke-width="2" d="M688.762,-864.937C712.81,-854.87 743.455,-842.042 769.083,-831.314"/><polygon fill="#000" stroke="#000" points="770.763 -834.405 778.636 -827.315 768.06 -827.948 770.763 -834.405"/></g><g id="edge94" class="edge"><title>ms_drbd_pre_notify_promote_0-&gt;ms_drbd_confirmed-pre_notify_promote_0</title><path fill="none" stroke="#000" stroke-width="2" d="M648,-863.762C648,-839.201 648,-795.247 648,-766.354"/><polygon fill="#000" stroke="#000" points="651.5 -766.09 648 -756.09 644.5 -766.09 651.5 -766.09"/></g><g id="edge92" class="edge"><title>ms_drbd_pre_notify_promote_0-&gt;drbd0:1_pre_notify_promote_0 odin</title><path fill="none" stroke="#000" stroke-width="2" d="M607.281,-864.754C583.589,-854.72 553.53,-841.989 528.36,-831.329"/><polygon fill="#000" stroke="#000" points="529.549 -828.032 518.976 -827.355 526.819 -834.477 529.549 -828.032"/></g><g id="edge64" class="edge"><title>ms_drbd_demote_0-&gt;drbd0:0_demote_0 frigg</title><path fill="none" stroke="#000" stroke-width="2" d="M609.207,-1298.38C581.337,-1287.7 544.163,-1273.47 514.145,-1261.97"/><polygon fill="#000" stroke="#000" points="515.261 -1258.65 504.671 -1258.34 512.758 -1265.19 515.261 -1258.65"/></g><g id="edge66" class="edge"><title>ms_drbd_demote_0-&gt;ms_drbd_demoted_0</title><path fill="none" stroke="#000" stroke-width="2" d="M649.873,-1295.76C649.703,-1271.2 649.398,-1227.25 649.197,-1198.35"/><polygon fill="#000" stroke="#000" points="652.695 -1198.07 649.126 -1188.09 645.695 -1198.11 652.695 -1198.07"/></g><g id="edge72" class="edge"><title>ms_drbd_post_notify_demoted_0-&gt;drbd0:0_post_notify_demote_0 frigg</title><path fill="none" stroke="#000" stroke-width="2" d="M689.198,-1080.75C713.168,-1070.72 743.581,-1057.99 769.047,-1047.33"/><polygon fill="#000" stroke="#000" points="770.669 -1050.44 778.542 -1043.35 767.966 -1043.99 770.669 -1050.44"/></g><g id="edge76" class="edge"><title>ms_drbd_post_notify_demoted_0-&gt;ms_drbd_confirmed-post_notify_demoted_0</title><path fill="none" stroke="#000" stroke-width="2" d="M648,-1079.76C648,-1055.2 648,-1011.25 648,-982.354"/><polygon fill="#000" stroke="#000" points="651.5 -982.09 648 -972.09 644.5 -982.09 651.5 -982.09"/></g><g id="edge74" class="edge"><title>ms_drbd_post_notify_demoted_0-&gt;drbd0:1_post_notify_demote_0 odin</title><path fill="none" stroke="#000" stroke-width="2" d="M607.281,-1080.75C583.589,-1070.72 553.53,-1057.99 528.36,-1047.33"/><polygon fill="#000" stroke="#000" points="529.549 -1044.03 518.976 -1043.35 526.819 -1050.48 529.549 -1044.03"/></g><g id="edge78" class="edge"><title>ms_drbd_post_notify_promoted_0-&gt;drbd0:0_post_notify_promote_0 frigg</title><path fill="none" stroke="#000" stroke-width="2" d="M692.917,-432.754C717.413,-422.676 748.521,-409.877 774.501,-399.188"/><polygon fill="#000" stroke="#000" points="775.902 -402.396 783.819 -395.355 773.239 -395.923 775.902 -402.396"/></g><g id="edge82" class="edge"><title>ms_drbd_post_notify_promoted_0-&gt;ms_drbd_confirmed-post_notify_promoted_0</title><path fill="none" stroke="#000" stroke-width="2" d="M651.817,-431.707C653.338,-412.743 657.671,-382.744 670,-360 675.815,-349.272 684.429,-339.278 693.077,-330.877"/><polygon fill="#000" stroke="#000" points="695.637 -333.277 700.617 -323.926 690.892 -328.131 695.637 -333.277"/></g><g id="edge80" class="edge"><title>ms_drbd_post_notify_promoted_0-&gt;drbd0:1_post_notify_promote_0 odin</title><path fill="none" stroke="#000" stroke-width="2" d="M609.562,-432.754C585.453,-422.72 554.863,-409.989 529.249,-399.329"/><polygon fill="#000" stroke="#000" points="530.276 -395.966 519.699 -395.355 527.587 -402.428 530.276 -395.966"/></g><g id="edge96" class="edge"><title>ms_drbd_promote_0-&gt;drbd0:1_promote_0 odin</title><path fill="none" stroke="#000" stroke-width="2" d="M707.984,-651.43C746.743,-640.131 800.692,-624.406 842.338,-612.266"/><polygon fill="#000" stroke="#000" points="843.481 -615.578 852.102 -609.42 841.522 -608.858 843.481 -615.578"/></g><g id="node72" class="node"><title>ms_drbd_pre_notify_demote_0</title><ellipse cx="439" cy="-1530" fill="none" stroke="green" stroke-width="2" rx="123.809" ry="18"/><text x="439" y="-1524.4" fill="orange" font-family="Times,serif" font-size="14" text-anchor="middle">ms_drbd_pre_notify_demote_0</text></g><g id="edge84" class="edge"><title>ms_drbd_pre_notify_demote_0-&gt;drbd0:0_pre_notify_demote_0 frigg</title><path fill="none" stroke="#000" stroke-width="2" d="M375.072,-1514.55C328.672,-1503.34 265.721,-1488.13 216.788,-1476.31"/><polygon fill="#000" stroke="#000" points="217.427 -1472.86 206.885 -1473.92 215.783 -1479.67 217.427 -1472.86"/></g><g id="edge88" class="edge"><title>ms_drbd_pre_notify_demote_0-&gt;ms_drbd_confirmed-pre_notify_demote_0</title><path fill="none" stroke="#000" stroke-width="2" d="M503.053,-1514.45C538.216,-1504.48 576.73,-1490.68 587,-1476 596.172,-1462.89 596.172,-1453.11 587,-1440 577.977,-1427.1 547.153,-1414.89 515.954,-1405.35"/><polygon fill="#000" stroke="#000" points="516.865 -1401.97 506.283 -1402.48 514.872 -1408.68 516.865 -1401.97"/></g><g id="edge86" class="edge"><title>ms_drbd_pre_notify_demote_0-&gt;drbd0:1_pre_notify_demote_0 odin</title><path fill="none" stroke="#000" stroke-width="2" d="M439,-1511.83C439,-1504.13 439,-1494.97 439,-1486.42"/><polygon fill="#000" stroke="#000" points="442.5 -1486.41 439 -1476.41 435.5 -1486.41 442.5 -1486.41"/></g></g></svg>